<svg fill="none" height="20" viewBox="0 0 20 20" width="20" xmlns="http://www.w3.org/2000/svg"><path d="m18.8958 0h-17.79163c-.610003 0-1.10417.494167-1.10417 1.10417v17.79253c0 .6091.494167 1.1033 1.10417 1.1033h9.57913v-7.745h-2.60663v-3.01833h2.60663v-2.22584c0-2.58333 1.5775-3.99 3.8825-3.99 1.1042 0 2.0525.0825 2.3292.11917v2.7l-1.5983.00083c-1.2534 0-1.4959.59584-1.4959 1.46917v1.9275h2.9892l-.3892 3.0183h-2.6v7.7442h5.0967c.6083 0 1.1025-.4942 1.1025-1.1042v-17.79163c0-.610003-.4942-1.10417-1.1042-1.10417z" fill="#000"/></svg>