<svg width="94" height="98" xmlns="http://www.w3.org/2000/svg">

 <g>
  <title>background</title>
  <rect fill="none" id="canvas_background" height="92" width="92" y="-1" x="-1"/>
 </g>
 <g>
  <title>Layer 1</title>
  <g id="svg_4">
   <path id="svg_1" fill="#D1D2D6" d="m1.34689,5.367189l92,0l0,92l-92,0l0,-92z"/>
   <path id="svg_2" fill="#F5F6F7" d="m25.53799,82.249189l7.0404,-4.26c1.3583,2.408 2.5939,4.445 5.5576,4.445c2.8409,0 4.632,-1.111 4.632,-5.434l0,-29.3957l8.6456,0l0,29.5187c0,8.954 -5.2489,13.03 -12.907,13.03c-6.9162,0 -10.9309,-3.582 -12.9688,-7.904"/>
   <path id="svg_3" fill="#F5F6F7" d="m56.10719,81.322189l7.0396,-4.076c1.8531,3.026 4.2616,5.249 8.5225,5.249c3.5823,0 5.8667,-1.791 5.8667,-4.261c0,-2.965 -2.3466,-4.015 -6.2991,-5.743l-2.1608,-0.927c-6.2378,-2.655 -10.3756,-5.99 -10.3756,-13.03c0,-6.4846 4.9404,-11.4253 12.6603,-11.4253c5.4963,0 9.4486,1.9146 12.2891,6.9169l-6.7315,4.3227c-1.4822,-2.6553 -3.0874,-3.7049 -5.5575,-3.7049c-2.532,0 -4.1378,1.6056 -4.1378,3.7049c0,2.5937 1.6058,3.6437 5.3107,5.2497l2.1613,0.926c7.349,3.15 11.4869,6.361 11.4869,13.586c0,7.782 -6.1138,12.043 -14.3272,12.043c-8.0283,0 -13.2159,-3.829 -15.7475,-8.831"/>
  </g>
 </g>
</svg>