<svg height="98" width="94" xmlns="http://www.w3.org/2000/svg"><path d="m-1-1h92v92h-92z" fill="none"/><path d="m1.34689 5.367189h92v92h-92v-92z" fill="#d1d2d6"/><g fill="#f5f6f7"><path d="m25.53799 82.249189 7.0404-4.26c1.3583 2.408 2.5939 4.445 5.5576 4.445 2.8409 0 4.632-1.111 4.632-5.434v-29.3957h8.6456v29.5187c0 8.954-5.2489 13.03-12.907 13.03-6.9162 0-10.9309-3.582-12.9688-7.904"/><path d="m56.10719 81.322189 7.0396-4.076c1.8531 3.026 4.2616 5.249 8.5225 5.249 3.5823 0 5.8667-1.791 5.8667-4.261 0-2.965-2.3466-4.015-6.2991-5.743l-2.1608-.927c-6.2378-2.655-10.3756-5.99-10.3756-13.03 0-6.4846 4.9404-11.4253 12.6603-11.4253 5.4963 0 9.4486 1.9146 12.2891 6.9169l-6.7315 4.3227c-1.4822-2.6553-3.0874-3.7049-5.5575-3.7049-2.532 0-4.1378 1.6056-4.1378 3.7049 0 2.5937 1.6058 3.6437 5.3107 5.2497l2.1613.926c7.349 3.15 11.4869 6.361 11.4869 13.586 0 7.782-6.1138 12.043-14.3272 12.043-8.0283 0-13.2159-3.829-15.7475-8.831"/></g></svg>