<svg height="102" width="94" xmlns="http://www.w3.org/2000/svg"><path d="m-1-1h89v99h-89z" fill="none"/><g fill="#d1d2d6"><path d="m88.887829 78.625548-40.1443 22.711v-17.685l25.0132-13.763zm2.75-2.487v-47.4866l-14.6838 8.4868v30.5268zm-86.5653 2.487 40.1447 22.711v-17.685l-25.0263-13.763zm-2.75-2.487v-47.4866l14.6842 8.4868v30.5268zm1.7237-50.5656 41.171-23.2894v17.0921l-26.3816 14.5131-.2105.1184zm85.8686 0-41.1713-23.2894v17.0921l26.3816 14.5.2105.1184z"/><path d="m45.216229 79.625548-24.6843-13.579v-26.8816l24.6843 14.25zm3.5263 0 24.6842-13.566v-26.8946l-24.6842 14.25zm-26.5395-43.5659 24.7763-13.6184 24.7763 13.6184-24.7763 14.3026z"/></g></svg>