<svg width="94" height="102" xmlns="http://www.w3.org/2000/svg">

 <g>
  <title>background</title>
  <rect fill="none" id="canvas_background" height="104" width="96" y="-1" x="-1"/>
 </g>
 <g>
  <title>Layer 1</title>
  <g id="svg_5">
   <path id="svg_1" fill="#D1D2D6" d="m88.887829,78.625548l-40.1443,22.711l0,-17.685l25.0132,-13.763l15.1311,8.737zm2.75,-2.487l0,-47.4866l-14.6838,8.4868l0,30.5268l14.6838,8.473zm-86.5653,2.487l40.1447,22.711l0,-17.685l-25.0263,-13.763l-15.1184,8.737zm-2.75,-2.487l0,-47.4866l14.6842,8.4868l0,30.5268l-14.6842,8.473zm1.7237,-50.5656l41.171,-23.2894l0,17.0921l-26.3816,14.5131l-0.2105,0.1184l-14.5789,-8.4342zm85.8686,0l-41.1713,-23.2894l0,17.0921l26.3816,14.5l0.2105,0.1184l14.5792,-8.4211z"/>
   <path id="svg_2" fill="#D1D2D6" d="m45.216229,79.625548l-24.6843,-13.579l0,-26.8816l24.6843,14.25l0,26.2106zm3.5263,0l24.6842,-13.566l0,-26.8946l-24.6842,14.25l0,26.2106zm-26.5395,-43.5659l24.7763,-13.6184l24.7763,13.6184l-24.7763,14.3026l-24.7763,-14.3026z"/>
  </g>
 </g>
</svg>