<svg height="98" width="94" xmlns="http://www.w3.org/2000/svg"><path d="M-1-1h92v92H-1z" fill="none"/><path d="M1.347 5.367h92v92h-92v-92z" fill="#d1d2d6"/><path d="M25.538 82.25l7.04-4.26c1.359 2.407 2.594 4.444 5.558 4.444 2.84 0 4.632-1.11 4.632-5.434V47.604h8.646v29.52c0 8.953-5.25 13.03-12.907 13.03-6.917 0-10.931-3.583-12.97-7.905m30.57-.927l7.04-4.076c1.853 3.026 4.261 5.25 8.522 5.25 3.583 0 5.867-1.792 5.867-4.262 0-2.965-2.347-4.015-6.3-5.743l-2.16-.927C62.838 68.91 58.7 65.574 58.7 58.534c0-6.484 4.94-11.425 12.66-11.425 5.497 0 9.45 1.914 12.29 6.917l-6.732 4.322c-1.482-2.655-3.087-3.704-5.557-3.704-2.532 0-4.138 1.605-4.138 3.704 0 2.594 1.606 3.644 5.31 5.25l2.162.926c7.35 3.15 11.487 6.361 11.487 13.586 0 7.782-6.114 12.043-14.327 12.043-8.029 0-13.216-3.829-15.748-8.83" fill="#f5f6f7"/></svg>