<svg height="102" width="94" xmlns="http://www.w3.org/2000/svg"><path d="M-1-1h89v99H-1z" fill="none"/><path d="M88.888 78.626l-40.144 22.71V83.653L73.757 69.89zm2.75-2.487V28.652l-14.684 8.487v30.527zM5.073 78.626l40.144 22.71V83.653L20.191 69.889zm-2.75-2.487V28.652l14.684 8.487v30.527zm1.723-50.566l41.171-23.29v17.093L18.836 33.889l-.21.118zm85.869 0L48.744 2.283v17.093l26.381 14.5.21.118zM45.216 79.626l-24.684-13.58v-26.88l24.684 14.25zm3.527 0L73.427 66.06V39.165l-24.684 14.25zM22.203 36.06l24.776-13.62 24.777 13.62-24.777 14.302z" fill="#d1d2d6"/></svg>